<svg xmlns="http://www.w3.org/2000/svg" width="32" height="32" viewBox="0 0 32 32">
  <defs>
    <linearGradient id="g" x1="0" y1="0" x2="32" y2="32">
      <stop stop-color="#3b82f6"/>
      <stop offset="1" stop-color="#8b5cf6"/>
    </linearGradient>
  </defs>
  <rect width="32" height="32" rx="8" fill="url(#g)"/>
  <path d="M9 13h3v10H9V13zm1.5-1.5a1.75 1.75 0 110-3.5 1.75 1.75 0 010 3.5zM21.5 23h-3v-5c0-1.5-.5-2.5-1.8-2.5-1 0-1.6.7-1.9 1.3-.1.2-.1.5-.1.8v5.4h-3s.04-8.76 0-10h3v1.4c.4-.6 1.1-1.5 2.7-1.5 2 0 3.5 1.3 3.5 4.1V23h.6z" fill="white"/>
</svg>
